<?xml version="1.0" standalone="no"?>
<!DOCTYPE svg PUBLIC "-//W3C//DTD SVG 20010904//EN"
 "http://www.w3.org/TR/2001/REC-SVG-20010904/DTD/svg10.dtd">
<svg version="1.0" xmlns="http://www.w3.org/2000/svg"
 width="1280.000000pt" height="640.000000pt" viewBox="0 0 1280.000000 640.000000"
 preserveAspectRatio="xMidYMid meet">
<metadata>
Created by potrace 1.15, written by Peter Selinger 2001-2017
</metadata>
<g transform="translate(0.000000,640.000000) scale(0.100000,-0.100000)"
fill="#65000B" stroke="none">
<path d="M1605 4439 c-299 -26 -575 -113 -855 -270 -80 -44 -194 -108 -255
-142 -290 -162 -473 -469 -491 -822 -10 -180 31 -365 109 -505 168 -300 505
-523 965 -640 349 -88 642 -120 939 -100 478 30 848 145 1301 404 307 174 573
232 867 186 33 -5 184 -17 335 -25 434 -25 783 -53 940 -74 304 -41 402 -37
526 24 66 32 96 58 169 147 12 14 48 36 80 49 59 23 67 24 349 24 l290 0 33
57 c40 68 107 122 176 143 64 19 193 19 322 0 55 -8 180 -19 277 -25 97 -5
268 -21 380 -37 162 -22 242 -27 398 -28 212 0 283 12 384 62 27 14 92 36 145
50 82 22 118 26 246 26 166 1 238 -10 565 -88 297 -70 350 -78 475 -71 239 15
542 44 1360 130 182 19 395 40 475 47 107 8 165 18 220 37 66 23 95 26 241 30
l166 4 16 76 c30 139 47 266 47 342 0 128 -38 259 -86 301 -46 40 -263 67
-639 79 -170 6 -357 15 -415 21 -58 5 -163 14 -235 20 -450 33 -1185 103
-1250 119 -107 26 -231 4 -459 -82 -290 -108 -376 -119 -598 -73 -627 130
-685 135 -1018 80 -174 -28 -298 -41 -530 -55 -324 -19 -495 -31 -511 -36 -12
-3 -21 8 -33 40 -21 54 -89 119 -154 147 -79 34 -186 45 -309 31 -91 -10 -257
-43 -339 -67 -19 -6 -27 2 -54 54 -61 114 -201 220 -335 255 -148 38 -267 30
-457 -30 -173 -54 -299 -74 -763 -124 -104 -11 -291 -35 -415 -52 -182 -26
-258 -31 -400 -31 -208 0 -289 14 -394 72 -181 99 -475 212 -721 276 -113 30
-156 36 -325 45 -227 12 -611 11 -755 -1z m666 -64 c379 -26 627 -97 1004
-290 222 -114 266 -143 282 -190 22 -63 35 -71 69 -42 41 34 89 57 120 57 l26
0 -4 -75 c-3 -41 -2 -75 1 -75 3 0 19 24 34 54 36 68 82 116 113 116 23 0 24
-1 17 -75 -7 -91 5 -98 37 -21 24 61 74 121 106 130 13 4 30 -1 46 -14 25 -19
25 -20 12 -77 -27 -116 -16 -121 45 -20 52 85 79 117 99 117 12 0 14 -12 9
-67 -3 -38 -9 -78 -13 -90 -14 -48 16 -19 86 83 64 92 94 124 114 124 10 0 6
-120 -5 -165 -17 -68 -6 -73 31 -14 99 160 114 180 129 177 18 -4 21 -63 7
-162 -12 -79 1 -69 64 53 60 114 92 157 108 147 8 -5 12 -46 12 -124 0 -72 4
-112 9 -107 5 6 30 51 56 102 64 128 111 161 153 108 18 -23 19 -29 6 -87 -25
-118 -16 -117 56 4 117 198 150 198 136 2 -4 -53 -3 -94 2 -94 5 0 34 47 65
104 31 57 66 114 77 127 30 37 40 10 40 -116 0 -60 4 -116 8 -123 5 -7 15 18
26 65 23 101 68 196 101 211 24 11 25 10 39 -41 8 -29 18 -73 22 -99 3 -26 10
-46 14 -43 4 2 22 46 40 96 37 101 54 119 124 126 97 11 225 -84 285 -211 30
-63 79 -254 106 -409 48 -284 20 -511 -81 -648 -20 -27 -45 -78 -55 -112 -22
-71 -55 -131 -69 -122 -22 13 -45 188 -53 394 l-2 64 -25 -38 c-40 -61 -52
-64 -102 -23 -58 47 -76 52 -119 29 -30 -16 -49 -18 -124 -13 -49 3 -173 -1
-276 -8 l-188 -13 -41 36 c-58 53 -106 52 -223 -8 -98 -49 -121 -49 -133 3
-15 67 -14 66 -38 43 -36 -34 -62 -27 -102 29 -20 28 -43 50 -51 50 -8 0 -28
-14 -44 -31 l-28 -30 -12 45 c-12 49 -31 72 -50 60 -6 -4 -29 -44 -50 -89 -31
-68 -58 -109 -59 -93 -1 2 -7 52 -14 111 -13 101 -23 136 -33 112 -25 -59 -72
-141 -85 -149 -29 -18 -41 8 -46 99 -2 47 -8 85 -12 85 -4 0 -18 -24 -30 -52
-24 -57 -56 -98 -76 -98 -7 0 -22 11 -32 25 -22 28 -26 26 -36 -20 -9 -35 -33
-75 -46 -75 -5 0 -24 25 -42 55 -43 73 -57 72 -82 -7 -4 -14 -11 -11 -39 17
-57 57 -74 48 -104 -54 l-18 -64 -25 63 c-28 72 -45 84 -61 43 -16 -41 -16
-224 0 -334 16 -106 11 -149 -18 -149 -22 0 -42 22 -72 80 -21 40 -24 59 -24
180 -2 142 -12 237 -25 223 -4 -4 -20 -47 -34 -96 -25 -80 -71 -157 -96 -157
-5 0 -11 39 -14 88 -20 271 -36 348 -95 439 -21 33 -58 99 -81 146 -155 312
-541 495 -1085 514 -169 5 -255 -4 -452 -49 l-93 -21 0 -40 c0 -26 -4 -37 -12
-35 -21 7 -21 39 -1 67 13 18 17 34 13 51 -7 23 -8 22 -15 -13 -7 -35 -11 -38
-64 -53 -124 -37 -374 -161 -343 -172 7 -2 9 -8 6 -14 -4 -6 -9 -5 -14 3 -17
26 -166 -122 -220 -220 -14 -24 -34 -42 -56 -50 -66 -24 -104 -124 -149 -390
-14 -85 -28 -158 -31 -163 -10 -17 -31 12 -44 60 -14 52 -36 92 -50 92 -18 0
-23 -75 -11 -202 13 -142 46 -340 62 -369 13 -26 -15 -26 -57 0 -43 26 -70 75
-90 157 -16 70 -16 230 2 619 6 138 -3 137 -35 -5 -33 -142 -78 -285 -100
-311 l-20 -24 -23 50 c-32 70 -31 211 1 305 33 95 93 210 176 336 58 88 90
125 156 181 308 259 751 428 1294 496 72 9 316 5 506 -8z m599 -85 c0 -5 -4
-10 -10 -10 -5 0 -10 5 -10 10 0 6 5 10 10 10 6 0 10 -4 10 -10z m2360 -124
c0 -8 -4 -18 -10 -21 -5 -3 -10 3 -10 14 0 12 5 21 10 21 6 0 10 -6 10 -14z
m-833 -132 c-3 -3 -12 -4 -19 -1 -8 3 -5 6 6 6 11 1 17 -2 13 -5z m-2256 -77
c25 -9 108 -25 185 -37 210 -32 254 -48 254 -94 0 -26 -10 -29 -127 -42 -35
-4 -61 -10 -58 -14 2 -4 78 -10 167 -13 162 -7 232 -17 276 -39 58 -30 -2 -64
-184 -103 -65 -14 -120 -27 -121 -29 -9 -8 163 -13 184 -5 37 14 84 10 129
-10 115 -52 173 -240 97 -315 l-26 -26 23 -26 c19 -19 25 -39 28 -89 5 -77
-21 -141 -75 -182 -30 -23 -48 -27 -146 -35 -134 -10 -146 -13 -87 -22 113
-17 170 -46 157 -79 -6 -17 -97 -51 -192 -74 -56 -13 -138 -16 -417 -18 -191
-2 -375 -5 -410 -9 -94 -9 -428 -20 -638 -21 -241 0 -286 16 -240 90 l20 32
122 6 c68 4 307 14 533 22 225 9 411 17 413 19 2 2 -41 8 -95 13 -149 12 -656
6 -853 -11 l-175 -15 -40 27 c-22 15 -53 47 -70 71 -26 37 -30 52 -30 106 0
59 3 67 33 98 53 55 134 70 251 46 63 -13 215 -4 205 12 -3 6 -106 9 -256 8
l-251 -1 -13 24 c-33 59 -4 113 66 124 22 4 40 9 40 11 0 3 -9 16 -20 30 -11
14 -20 36 -20 49 0 34 46 82 86 90 25 5 32 10 25 17 -17 17 -13 67 9 112 27
56 71 80 131 71 102 -16 155 -17 191 -7 65 20 46 33 -42 29 -70 -3 -81 -1 -86
15 -3 10 2 29 10 42 37 56 141 84 313 85 l122 0 -25 25 c-22 22 -24 28 -13 41
7 9 23 20 35 24 41 16 228 33 329 31 55 -1 114 2 130 7 25 7 36 4 65 -19 19
-15 56 -34 81 -42z m4607 51 c-6 -18 -28 -21 -28 -4 0 9 7 16 16 16 9 0 14 -5
12 -12z m-2883 -17 c16 -7 9 -11 -33 -20 -64 -13 -89 -14 -97 -2 -15 25 82 41
130 22z m-2565 -10 c0 -6 -4 -13 -10 -16 -5 -3 -10 1 -10 9 0 9 5 16 10 16 6
0 10 -4 10 -9z m2345 -1 c3 -5 -1 -10 -9 -10 -9 0 -16 5 -16 10 0 6 4 10 9 10
6 0 13 -4 16 -10z m3075 -55 c71 -22 140 -60 162 -90 22 -30 61 -163 89 -307
30 -150 33 -414 7 -498 -20 -63 -70 -148 -94 -157 -35 -13 -38 14 -10 96 32
98 33 143 4 201 -47 92 -181 117 -344 66 l-77 -25 -52 20 c-60 22 -83 43 -64
55 7 4 105 11 218 16 218 10 281 20 281 43 0 8 -14 22 -32 31 -27 14 -41 15
-99 5 -291 -48 -440 67 -468 361 -6 65 -5 100 3 117 14 31 87 68 157 80 75 14
253 5 319 -14z m3610 -69 c153 -25 377 -45 635 -56 132 -6 269 -15 305 -20 36
-6 191 -14 345 -19 251 -8 287 -11 348 -31 106 -36 175 -105 196 -197 9 -40
15 -33 25 28 9 54 55 117 102 140 31 15 62 20 121 20 77 0 223 -30 248 -51 7
-6 25 -48 40 -95 24 -72 27 -95 23 -172 -5 -103 -25 -150 -88 -207 -65 -58
-152 -82 -256 -71 -80 8 -104 27 -164 129 -25 42 -48 76 -52 76 -14 0 -26 -35
-38 -109 l-12 -73 -62 -29 c-106 -50 -176 -59 -501 -70 -165 -5 -322 -14 -350
-19 -156 -30 -468 -61 -805 -80 -131 -7 -176 -6 -181 2 -4 7 -11 35 -15 63 -3
27 -13 67 -22 89 -14 35 -17 37 -28 22 -7 -10 -16 -51 -19 -93 -7 -67 -10 -75
-32 -84 -42 -16 -71 -10 -143 26 -238 120 -510 154 -895 113 -83 -8 -113 -17
-179 -49 -123 -60 -184 -52 -226 31 -31 61 -42 174 -38 397 4 214 -2 240 -34
147 -15 -42 -17 -92 -18 -336 l0 -288 -23 0 c-27 0 -60 28 -84 73 -15 27 -18
58 -18 192 0 88 4 217 9 287 8 118 7 128 -9 135 -12 4 -24 -1 -37 -16 -22 -28
-23 -88 -7 -298 11 -128 10 -153 -6 -221 -45 -198 -91 -196 -122 7 -11 69 -13
128 -8 211 12 184 6 300 -14 300 -15 0 -23 -101 -27 -320 -5 -283 -22 -365
-64 -312 -35 42 -53 157 -56 341 -2 183 -10 277 -23 286 -16 9 -23 -63 -30
-315 -6 -203 -12 -265 -25 -302 -24 -63 -40 -76 -60 -46 -28 43 -39 150 -40
385 -1 209 -5 257 -21 241 -14 -14 -26 -257 -20 -391 9 -204 -10 -257 -68
-187 -50 59 -71 134 -70 250 1 58 4 131 8 164 8 64 -1 166 -15 166 -19 0 -33
-115 -36 -293 -4 -192 -12 -255 -39 -277 -60 -50 -126 227 -87 366 12 40 2
180 -14 206 -23 37 -45 -148 -41 -347 2 -119 -1 -145 -16 -173 -26 -47 -47
-38 -77 33 -23 57 -25 71 -25 255 -1 107 -4 201 -9 208 -27 44 -47 -93 -44
-301 2 -170 -6 -211 -40 -205 -9 2 -28 25 -41 52 -27 54 -30 113 -16 311 5 81
4 104 -8 120 -40 53 -77 -77 -58 -208 29 -210 -7 -306 -69 -182 -21 42 -25 65
-26 145 -1 81 -5 103 -28 153 -17 35 -28 74 -28 101 0 104 36 120 353 156 53
6 121 18 150 25 37 10 111 15 239 15 214 0 428 13 619 36 162 20 231 13 446
-48 259 -73 301 -81 425 -81 l115 0 195 66 c107 36 242 76 300 87 96 20 314
41 350 34 8 -1 58 -10 110 -18z m-7614 -14 c-4 -3 -14 2 -24 12 -16 18 -16 18
6 6 13 -6 21 -14 18 -18z m-29 -24 c-3 -8 -6 -5 -6 6 -1 11 2 17 5 13 3 -3 4
-12 1 -19z m347 -327 c3 -5 -1 -11 -9 -15 -15 -6 -29 7 -18 18 9 9 21 8 27 -3z
m-20 -37 c13 -5 14 -9 5 -20 -13 -16 -29 -9 -29 12 0 16 2 16 24 8z m4016 -4
c0 -5 -4 -10 -10 -10 -5 0 -10 5 -10 10 0 6 5 10 10 10 6 0 10 -4 10 -10z
m-6310 -40 c0 -5 -5 -10 -11 -10 -5 0 -7 5 -4 10 3 6 8 10 11 10 2 0 4 -4 4
-10z m3279 -312 c10 -27 -3 -48 -30 -48 -27 0 -33 18 -15 45 20 31 34 32 45 3z
m169 -93 c4 -69 4 -70 -31 -104 -19 -18 -40 -30 -46 -27 -26 16 -3 168 31 212
20 24 22 25 31 8 6 -10 12 -50 15 -89z m306 76 c12 -18 -15 -69 -40 -75 -50
-13 -58 14 -17 56 27 28 47 35 57 19z m-3850 -20 c27 -29 58 -130 63 -201 5
-78 -16 -175 -37 -175 -26 0 -60 108 -72 228 -15 152 -1 200 46 148z m3230
-17 c3 -9 6 -40 6 -70 0 -50 -2 -55 -27 -65 -14 -5 -32 -8 -40 -5 -26 10 -11
100 24 138 20 22 29 23 37 2z m1121 -11 c4 -16 8 -36 10 -45 2 -13 -7 -20 -32
-27 -19 -5 -41 -7 -49 -4 -20 8 -17 46 7 77 27 35 57 34 64 -1z m7175 7 c0 -5
-4 -10 -10 -10 -5 0 -10 5 -10 10 0 6 5 10 10 10 6 0 10 -4 10 -10z m-8460
-10 c0 -5 -4 -10 -10 -10 -5 0 -10 5 -10 10 0 6 5 10 10 10 6 0 10 -4 10 -10z
m1580 -5 c0 -8 -4 -15 -10 -15 -5 0 -10 7 -10 15 0 8 5 15 10 15 6 0 10 -7 10
-15z m-663 -39 c15 -33 15 -37 -1 -61 -21 -32 -34 -23 -43 28 -11 70 16 90 44
33z m836 12 c7 -26 -8 -48 -34 -48 -23 0 -24 18 -3 48 19 28 30 28 37 0z
m-1460 -41 c17 -22 18 -29 7 -42 -21 -25 -54 -15 -58 18 -7 61 16 72 51 24z
m-871 -189 c3 -173 7 -220 21 -252 9 -21 17 -40 17 -42 0 -2 -16 -4 -35 -4
-59 0 -69 27 -75 214 -5 121 -3 169 7 194 36 88 43 102 51 102 6 0 12 -87 14
-212z m1705 182 c7 -14 13 -41 13 -61 0 -40 -14 -49 -76 -49 -44 0 -59 21 -45
62 26 73 83 99 108 48z m6110 -2 c-3 -8 -6 -5 -6 6 -1 11 2 17 5 13 3 -3 4
-12 1 -19z m-7243 6 c18 -7 22 -59 6 -69 -5 -3 -16 8 -25 24 -24 47 -19 60 19
45z m1984 -29 c13 -28 16 -123 6 -173 -8 -41 -38 -51 -73 -24 -57 42 -64 133
-15 192 32 37 66 40 82 5z m2722 15 c0 -5 -2 -10 -4 -10 -3 0 -8 5 -11 10 -3
6 -1 10 4 10 6 0 11 -4 11 -10z m-4799 -31 c20 -71 2 -118 -45 -119 -16 0 -18
6 -14 48 10 91 43 131 59 71z m887 19 c7 -7 12 -40 12 -80 0 -65 -1 -68 -24
-68 -33 0 -86 46 -86 75 0 29 46 85 69 85 9 0 22 -5 29 -12z m642 -8 c8 -14 8
-26 0 -41 -16 -30 -35 -18 -38 24 -2 28 1 37 12 37 8 0 20 -9 26 -20z m-790
-8 c0 -36 -24 -55 -58 -47 -43 9 -50 24 -22 47 30 24 80 24 80 0z m1532 -17
c9 -34 0 -123 -14 -131 -16 -10 -57 6 -69 27 -14 27 -4 80 22 114 27 33 50 29
61 -10z m-554 -8 c2 -11 -6 -19 -23 -23 -35 -9 -42 1 -20 26 21 23 38 22 43
-3z m-325 -39 c3 -10 1 -21 -4 -24 -12 -7 -71 55 -63 67 8 13 62 -21 67 -43z
m227 27 c0 -8 -4 -15 -10 -15 -5 0 -10 7 -10 15 0 8 5 15 10 15 6 0 10 -7 10
-15z m-1285 -35 c-5 -8 -11 -8 -17 -2 -6 6 -7 16 -3 22 5 8 11 8 17 2 6 -6 7
-16 3 -22z m-951 -1 c-8 -14 -24 -10 -24 6 0 9 6 12 15 9 8 -4 12 -10 9 -15z
m299 -28 c35 -39 57 -93 57 -141 -1 -51 -26 -125 -44 -128 -38 -8 -104 86 -91
129 4 10 1 43 -5 72 -13 63 -1 107 29 107 10 0 35 -18 54 -39z m390 -6 c-6
-16 -16 -19 -26 -8 -9 8 13 34 24 28 4 -3 6 -12 2 -20z m995 0 c23 -50 16 -73
-28 -86 -32 -10 -43 -9 -55 1 -20 17 -12 56 17 88 28 29 52 28 66 -3z m-774
-1 c3 -8 1 -25 -5 -36 -15 -27 -34 -8 -25 26 7 29 21 34 30 10z m1406 -9 c6
-8 16 -30 20 -50 7 -31 5 -38 -17 -55 -14 -11 -34 -20 -44 -20 -34 0 -36 66
-3 118 17 26 27 28 44 7z m-1114 -34 c-11 -18 -36 -13 -36 7 0 10 3 22 7 26
10 10 37 -20 29 -33z m646 4 c8 -19 8 -28 -2 -40 -18 -21 -29 -19 -40 10 -19
50 20 78 42 30z m656 -19 c5 -61 -5 -86 -32 -86 -25 0 -56 23 -56 41 0 14 19
50 38 72 25 29 47 17 50 -27z m-4965 -27 c6 -46 -4 -69 -30 -69 -16 0 -18 67
-3 106 14 35 26 21 33 -37z m4505 23 c3 -30 2 -32 -30 -32 -18 0 -40 5 -48 10
-13 9 -11 14 14 36 37 33 60 28 64 -14z m102 28 c0 -5 -4 -10 -10 -10 -5 0
-10 5 -10 10 0 6 5 10 10 10 6 0 10 -4 10 -10z m-1556 -81 c-3 -5 -10 -7 -15
-3 -5 3 -7 10 -3 15 3 5 10 7 15 3 5 -3 7 -10 3 -15z m-594 -25 c0 -51 -15
-74 -50 -74 -16 0 -32 5 -35 10 -8 13 30 76 53 90 27 15 32 12 32 -26z m1440
32 c0 -3 -4 -8 -10 -11 -5 -3 -10 -1 -10 4 0 6 5 11 10 11 6 0 10 -2 10 -4z
m-3596 -33 c23 -83 17 -103 -31 -103 -31 0 -46 31 -32 67 20 53 53 71 63 36z
m1731 3 c39 -17 43 -33 18 -65 -32 -40 -147 -51 -603 -60 -228 -5 -461 -15
-518 -22 -110 -14 -132 -11 -245 31 -62 23 -66 40 -16 65 55 29 175 37 419 31
221 -7 314 -3 610 27 104 11 303 6 335 -7z m3125 4 c11 -7 12 -12 3 -21 -15
-15 -43 -5 -43 16 0 17 18 19 40 5z m-1616 -21 c-3 -5 -10 -7 -15 -3 -5 3 -7
10 -3 15 3 5 10 7 15 3 5 -3 7 -10 3 -15z m941 1 c0 -7 -6 -15 -12 -17 -8 -3
-13 4 -13 17 0 13 5 20 13 18 6 -3 12 -11 12 -18z m156 -27 c-9 -17 -10 -17
-16 0 -4 9 -4 25 0 35 6 16 7 16 16 0 7 -12 7 -24 0 -35z m429 43 c0 -3 -4 -8
-10 -11 -5 -3 -10 -1 -10 4 0 6 5 11 10 11 6 0 10 -2 10 -4z m-1875 -35 c3 -5
1 -12 -5 -16 -5 -3 -10 1 -10 9 0 18 6 21 15 7z m-3436 -30 c12 -8 9 -11 -12
-17 -30 -7 -43 -1 -32 15 8 13 25 14 44 2z m5025 -13 c21 -29 20 -38 -2 -38
-23 0 -42 19 -42 42 0 25 26 23 44 -4z m-2510 -61 c-10 -28 -24 -19 -24 15 0
29 2 31 15 17 9 -9 13 -23 9 -32z m-1806 -49 c3 -46 2 -48 -23 -48 -34 0 -85
27 -85 45 0 26 43 56 75 53 28 -3 30 -6 33 -50z m2009 -4 c28 -48 28 -49 1
-76 l-21 -21 -19 23 c-11 14 -18 38 -18 64 0 70 21 73 57 10z m-899 17 c17
-10 1 -24 -53 -42 -45 -16 -294 -20 -357 -6 -72 15 -44 30 92 47 78 10 303 11
318 1z m-1628 -11 c0 -5 -4 -10 -10 -10 -5 0 -10 5 -10 10 0 6 5 10 10 10 6 0
10 -4 10 -10z m2285 0 c-3 -5 -10 -10 -16 -10 -5 0 -9 5 -9 10 0 6 7 10 16 10
8 0 12 -4 9 -10z m-1335 -20 c0 -5 -4 -10 -10 -10 -5 0 -10 5 -10 10 0 6 5 10
10 10 6 0 10 -4 10 -10z m1237 -6 c2 -6 -7 -26 -20 -45 -24 -36 -67 -49 -97
-29 -21 13 -4 39 46 67 40 24 65 26 71 7z m-2113 -16 c15 -24 -2 -38 -51 -45
-51 -7 -62 9 -28 43 28 28 62 29 79 2z m299 -44 c16 -33 16 -36 -5 -64 -44
-60 -72 -49 -66 26 7 87 40 105 71 38z m1988 10 c9 -16 20 -39 24 -51 6 -20 3
-23 -24 -23 -48 0 -81 66 -49 98 17 17 30 10 49 -24z m-648 7 c5 -22 0 -31
-20 -31 -13 0 -18 31 -6 43 11 12 21 8 26 -12z m-1047 -26 c8 -19 14 -66 14
-105 0 -68 -1 -71 -22 -68 -29 4 -68 78 -68 128 0 40 23 80 46 80 8 0 22 -16
30 -35z m136 18 c17 -15 17 -17 2 -35 -24 -26 -54 -24 -54 5 0 21 16 47 29 47
2 0 13 -7 23 -17z m1195 -23 c-6 -49 -22 -70 -52 -70 -36 0 -55 10 -55 30 0
23 65 80 92 80 18 0 20 -4 15 -40z m-1488 -32 c9 -25 8 -35 -3 -46 -20 -20
-36 -6 -36 32 0 55 22 63 39 14z m1326 -17 c-8 -26 -43 -47 -57 -33 -6 6 1 21
18 41 29 34 51 30 39 -8z m-165 -21 c0 -29 -5 -42 -19 -50 -25 -13 -58 -13
-66 0 -8 13 30 76 53 89 24 14 32 4 32 -39z m-522 28 c7 -7 12 -20 12 -30 0
-13 -8 -18 -30 -18 -34 0 -49 22 -30 45 15 18 32 19 48 3z m1110 0 c7 -7 12
-26 12 -43 0 -17 -5 -36 -12 -43 -18 -18 -127 -16 -134 2 -9 24 16 57 59 77
50 22 59 23 75 7z m-948 -42 c14 -25 13 -28 -5 -42 -40 -30 -71 8 -45 56 14
26 30 22 50 -14z m165 20 c17 -12 17 -16 5 -30 -15 -19 -61 -18 -67 0 -4 12
22 44 36 44 4 0 16 -6 26 -14z m-495 -6 c0 -5 -5 -10 -11 -10 -5 0 -7 5 -4 10
3 6 8 10 11 10 2 0 4 -4 4 -10z m-156 -16 c9 -25 7 -114 -3 -114 -5 0 -23 12
-40 26 -32 27 -38 52 -21 85 13 23 55 25 64 3z m160 -36 c20 -28 20 -48 0 -76
-23 -33 -44 -12 -44 43 0 60 17 72 44 33z m184 -58 c28 -41 28 -46 -3 -66 -20
-13 -28 -14 -39 -4 -21 17 -29 65 -16 90 14 27 29 22 58 -20z m849 23 c5 -13
-32 -27 -46 -18 -6 3 -8 12 -4 21 6 17 44 15 50 -3z m-553 -25 c8 -13 16 -32
18 -43 3 -17 -3 -20 -37 -20 -36 0 -40 3 -43 28 -6 53 36 76 62 35z m-154 -24
c0 -8 -4 -14 -10 -14 -5 0 -10 9 -10 21 0 11 5 17 10 14 6 -3 10 -13 10 -21z
m540 19 c-1 -20 -19 -35 -35 -29 -14 5 -15 9 -5 21 13 16 40 21 40 8z m-155
-40 l25 -28 -36 -3 c-53 -5 -84 5 -84 27 0 24 9 31 41 31 18 0 38 -10 54 -27z
m-465 -23 c0 -5 -4 -10 -10 -10 -5 0 -10 5 -10 10 0 6 5 10 10 10 6 0 10 -4
10 -10z m715 -19 c3 -5 1 -12 -5 -16 -5 -3 -10 1 -10 9 0 18 6 21 15 7z m-205
-51 c0 -5 -4 -10 -10 -10 -5 0 -10 5 -10 10 0 6 5 10 10 10 6 0 10 -4 10 -10z"/>
<path d="M5780 4057 c-29 -14 -38 -62 -18 -90 12 -16 15 -16 45 5 38 27 61 64
47 77 -18 17 -49 20 -74 8z"/>
<path d="M3815 3491 c-3 -5 -1 -12 5 -16 5 -3 10 1 10 9 0 18 -6 21 -15 7z"/>
<path d="M438 3434 c-27 -60 -33 -209 -9 -209 18 0 25 28 42 145 10 69 10 93
1 102 -9 9 -17 0 -34 -38z"/>
<path d="M3500 3411 c-5 -11 -10 -36 -10 -55 0 -34 1 -35 25 -24 28 13 39 39
31 74 -8 29 -31 31 -46 5z"/>
<path d="M3622 3413 c-13 -24 -3 -83 14 -90 18 -7 64 23 64 41 0 16 -45 66
-59 66 -6 0 -14 -8 -19 -17z"/>
<path d="M3756 3394 c-9 -23 -7 -62 3 -68 13 -8 38 3 45 20 8 20 -11 64 -28
64 -7 0 -17 -7 -20 -16z"/>
<path d="M3327 3376 c-3 -7 -8 -34 -12 -58 -6 -36 -4 -46 9 -51 44 -17 59 22
41 101 -6 24 -30 30 -38 8z"/>
<path d="M4867 3383 c-4 -3 -7 -22 -7 -40 0 -31 2 -34 27 -31 34 4 42 32 17
59 -18 20 -27 23 -37 12z"/>
<path d="M5700 3371 c-16 -32 -12 -50 14 -57 32 -8 46 2 46 30 0 43 -41 62
-60 27z"/>
<path d="M5907 3373 c-13 -12 -7 -53 7 -53 17 0 28 24 20 45 -7 16 -17 19 -27
8z"/>
<path d="M3900 3345 c-16 -20 -6 -45 19 -45 26 0 31 10 20 38 -10 26 -22 28
-39 7z"/>
<path d="M6066 3313 c-22 -64 -30 -178 -21 -297 8 -111 20 -120 49 -35 15 44
18 80 17 199 -1 146 -5 180 -21 180 -4 0 -15 -21 -24 -47z"/>
<path d="M5044 3339 c-8 -14 18 -31 30 -19 9 9 0 30 -14 30 -5 0 -12 -5 -16
-11z"/>
<path d="M5212 3333 c2 -9 8 -18 15 -20 7 -3 9 3 6 16 -6 25 -26 28 -21 4z"/>
<path d="M5362 3333 c5 -25 28 -28 28 -4 0 12 -6 21 -16 21 -9 0 -14 -7 -12
-17z"/>
<path d="M4656 3271 c-8 -13 11 -61 24 -61 17 0 23 27 10 49 -11 22 -25 27
-34 12z"/>
<path d="M5720 3255 c-15 -18 -6 -45 15 -45 10 0 15 10 15 30 0 33 -11 38 -30
15z"/>
<path d="M5900 3255 c0 -8 7 -15 15 -15 8 0 15 7 15 15 0 8 -7 15 -15 15 -8 0
-15 -7 -15 -15z"/>
<path d="M5320 3231 c-18 -35 -12 -70 14 -83 53 -24 71 12 36 70 -23 37 -35
40 -50 13z"/>
<path d="M5494 3235 c-10 -24 4 -62 24 -67 24 -7 62 8 62 25 0 19 -43 57 -63
57 -10 0 -20 -7 -23 -15z"/>
<path d="M5015 3209 c-19 -35 -19 -35 17 -44 32 -8 44 10 34 50 -9 34 -32 31
-51 -6z"/>
<path d="M5176 3232 c-2 -4 -7 -24 -11 -44 -6 -31 -4 -37 14 -43 28 -9 41 1
41 31 0 43 -29 80 -44 56z"/>
<path d="M4852 3208 c2 -15 11 -24 26 -26 26 -4 29 10 6 32 -22 23 -36 20 -32
-6z"/>
<path d="M1820 3910 l-35 -6 35 -8 c54 -11 193 -3 198 12 3 9 -17 12 -80 11
-45 -1 -99 -5 -118 -9z"/>
<path d="M1984 3771 c-18 -4 -40 -12 -50 -16 -17 -7 -17 -9 6 -15 37 -12 208
-12 215 -1 14 24 -111 47 -171 32z"/>
<path d="M1500 3757 c-65 -18 -32 -27 100 -27 100 0 135 8 116 27 -12 13 -172
12 -216 0z"/>
<path d="M2116 3595 c-53 -19 -65 -33 -35 -39 92 -19 208 -13 216 11 5 14 -69
43 -110 43 -17 -1 -49 -7 -71 -15z"/>
<path d="M1136 3569 c-78 -19 -92 -54 -17 -44 32 4 55 2 68 -6 15 -9 41 -9
113 -1 104 13 129 25 84 42 -40 16 -200 22 -248 9z"/>
<path d="M1666 3572 c-11 -19 13 -24 106 -23 91 1 108 4 94 18 -12 12 -193 16
-200 5z"/>
<path d="M923 3523 c9 -2 23 -2 30 0 6 3 -1 5 -18 5 -16 0 -22 -2 -12 -5z"/>
<path d="M2310 3425 c-8 -2 -32 -7 -54 -10 -67 -11 -25 -28 73 -29 89 -1 114
5 95 24 -11 11 -90 21 -114 15z"/>
<path d="M2693 3420 c-46 -19 -23 -30 62 -30 88 0 107 10 54 29 -38 13 -85 13
-116 1z"/>
<path d="M1810 3396 c-33 -12 -34 -13 -12 -20 34 -11 205 -12 221 -2 48 31
-132 50 -209 22z"/>
<path d="M1368 3383 c-27 -9 -48 -19 -48 -23 0 -11 151 -21 190 -12 20 4 35
14 35 22 0 30 -103 38 -177 13z"/>
<path d="M1000 3360 c14 -4 39 -8 55 -8 29 0 29 0 5 8 -14 4 -38 8 -55 8 -29
0 -29 0 -5 -8z"/>
<path d="M863 3348 c18 -6 40 -7 65 0 35 9 33 10 -28 10 -55 0 -61 -1 -37 -10z"/>
<path d="M2390 3233 c-41 -15 -42 -17 -21 -25 34 -12 221 -12 234 1 36 36
-129 55 -213 24z"/>
<path d="M2784 3241 c8 -12 89 -23 111 -15 18 7 18 8 -1 15 -27 11 -116 11
-110 0z"/>
<path d="M1985 3226 c-65 -12 -68 -13 -40 -22 40 -12 173 -9 208 5 74 29 -33
40 -168 17z"/>
<path d="M1455 3201 l-40 -19 125 -1 c118 -1 165 8 146 26 -4 4 -49 9 -99 11
-75 2 -100 -1 -132 -17z"/>
<path d="M2555 3073 c-47 -7 -51 -20 -13 -39 32 -15 39 -15 91 0 34 10 92 16
151 16 53 0 96 4 96 9 0 16 -239 26 -325 14z"/>
<path d="M2090 3057 c-35 -4 -67 -10 -69 -13 -14 -14 34 -24 119 -24 87 0 133
10 118 25 -13 13 -107 20 -168 12z"/>
<path d="M1655 3046 c-5 -2 -23 -7 -38 -10 -59 -13 -11 -26 98 -26 106 0 142
8 113 26 -13 8 -157 16 -173 10z"/>
<path d="M1110 3033 c-104 -6 -224 -24 -249 -38 -23 -13 -4 -14 169 -15 240 0
468 31 375 51 -30 7 -195 8 -295 2z"/>
<path d="M2225 2888 c-16 -6 -39 -17 -49 -24 -18 -13 -18 -14 10 -24 43 -17
177 -18 197 -2 50 42 -72 80 -158 50z"/>
<path d="M10136 3761 c-14 -22 -18 -152 -6 -181 23 -56 40 -31 40 58 0 100
-15 154 -34 123z"/>
<path d="M10294 3725 c-9 -48 0 -143 15 -158 8 -8 16 -9 29 0 34 21 9 193 -28
193 -5 0 -12 -16 -16 -35z"/>
<path d="M10466 3735 c-13 -35 -1 -185 15 -185 15 0 49 78 49 112 0 61 -47
115 -64 73z"/>
<path d="M9950 3714 c-18 -46 -6 -164 17 -171 18 -6 43 51 43 101 0 82 -39
127 -60 70z"/>
<path d="M10655 3693 c-4 -10 -10 -74 -12 -143 -5 -109 -3 -127 11 -139 32
-27 39 0 34 143 -3 131 -15 181 -33 139z"/>
<path d="M10987 3704 c-3 -5 -8 -25 -12 -44 -5 -28 -2 -39 14 -54 27 -25 44
-12 35 27 -9 42 -30 82 -37 71z"/>
<path d="M10803 3684 c-7 -18 3 -123 12 -133 12 -11 55 49 55 77 0 52 -52 96
-67 56z"/>
<path d="M11150 3650 c0 -38 4 -52 19 -60 28 -14 31 -13 31 15 0 33 -26 95
-39 95 -6 0 -11 -22 -11 -50z"/>
<path d="M9774 3676 c-3 -7 -4 -38 -2 -67 3 -51 5 -54 31 -57 25 -3 27 -1 27
33 0 39 -26 105 -41 105 -5 0 -12 -6 -15 -14z"/>
<path d="M11327 3664 c-4 -4 -7 -23 -7 -41 0 -30 3 -34 23 -31 17 2 21 9 19
28 -3 28 -24 54 -35 44z"/>
<path d="M11496 3641 c-21 -24 -14 -54 11 -49 20 4 30 45 16 59 -6 6 -17 2
-27 -10z"/>
<path d="M11654 3646 c-10 -26 1 -51 24 -54 24 -4 29 16 12 49 -13 23 -28 25
-36 5z"/>
<path d="M11967 3654 c-16 -16 -6 -52 15 -58 37 -9 45 11 17 39 -14 14 -28 22
-32 19z"/>
<path d="M11790 3641 c0 -27 15 -41 41 -41 33 0 37 10 11 33 -20 18 -52 23
-52 8z"/>
<path d="M8748 3588 c-14 -48 -18 -375 -5 -420 10 -38 23 -35 39 10 9 26 12
86 11 202 -2 178 -9 250 -23 250 -5 0 -15 -19 -22 -42z"/>
<path d="M9601 3588 c-10 -25 3 -48 26 -48 20 0 26 25 13 49 -14 27 -29 27
-39 -1z"/>
<path d="M8921 3576 c-26 -31 -35 -132 -22 -234 20 -152 28 -163 61 -89 17 36
19 57 14 157 -6 114 -18 180 -34 180 -4 0 -13 -6 -19 -14z"/>
<path d="M9437 3584 c-15 -16 -6 -53 14 -59 28 -9 35 0 23 32 -9 27 -25 39
-37 27z"/>
<path d="M9087 3573 c-15 -26 -17 -71 -3 -82 30 -25 45 10 30 67 -6 22 -19 29
-27 15z"/>
<path d="M9239 3493 c-11 -35 -7 -160 7 -197 12 -31 41 -19 48 22 9 58 7 171
-4 193 -16 30 -37 23 -51 -18z"/>
<path d="M11327 3503 c-14 -14 -7 -81 9 -87 32 -12 44 -6 44 22 0 43 -34 85
-53 65z"/>
<path d="M11799 3483 c-7 -20 -6 -28 3 -35 34 -21 58 4 38 41 -15 28 -28 26
-41 -6z"/>
<path d="M11145 3489 c-10 -16 4 -79 18 -79 17 0 57 29 57 41 0 14 -38 49 -54
49 -8 0 -18 -5 -21 -11z"/>
<path d="M11655 3480 c-15 -16 -15 -22 -5 -35 25 -30 50 -12 50 36 0 25 -22
24 -45 -1z"/>
<path d="M11950 3470 c0 -28 3 -30 35 -30 40 0 44 11 15 40 -30 30 -50 26 -50
-10z"/>
<path d="M10991 3471 c-16 -30 -13 -49 9 -61 24 -13 33 2 28 46 -4 34 -23 42
-37 15z"/>
<path d="M11485 3480 c-3 -6 -4 -18 0 -29 4 -13 12 -17 30 -13 32 6 40 19 25
37 -14 17 -46 20 -55 5z"/>
<path d="M9420 3455 c-13 -15 -9 -139 4 -152 11 -11 57 21 72 50 17 32 11 62
-19 95 -24 26 -40 28 -57 7z"/>
<path d="M9607 3463 c-4 -3 -7 -23 -7 -44 0 -28 6 -42 22 -53 38 -27 44 3 16
77 -10 27 -19 33 -31 20z"/>
<path d="M9784 3446 c-9 -38 -1 -61 24 -64 25 -4 29 18 12 62 -12 33 -28 33
-36 2z"/>
<path d="M9960 3444 c-6 -14 -10 -31 -10 -38 0 -18 37 -49 49 -41 22 13 5 105
-19 105 -6 0 -15 -12 -20 -26z"/>
<path d="M10306 3451 c-15 -16 -15 -22 -4 -40 16 -26 34 -27 41 -1 6 23 -2 60
-13 60 -4 0 -15 -9 -24 -19z"/>
<path d="M10478 3445 c-8 -19 -8 -28 2 -40 21 -25 30 -17 30 25 0 45 -15 52
-32 15z"/>
<path d="M10819 3454 c-8 -10 -10 -21 -3 -31 16 -25 29 -19 32 15 4 35 -8 41
-29 16z"/>
<path d="M9087 3439 c-3 -12 -3 -52 0 -90 5 -58 9 -69 24 -69 16 0 19 8 19 51
0 54 -18 129 -30 129 -4 0 -10 -9 -13 -21z"/>
<path d="M10127 3453 c-4 -3 -7 -21 -7 -40 0 -29 3 -33 25 -33 33 0 42 23 21
55 -17 25 -27 30 -39 18z"/>
<path d="M11814 3339 c-10 -17 13 -36 27 -22 12 12 4 33 -11 33 -5 0 -12 -5
-16 -11z"/>
<path d="M11965 3339 c-9 -13 12 -29 38 -29 26 0 17 34 -10 38 -11 2 -24 -2
-28 -9z"/>
<path d="M11487 3334 c-4 -4 -7 -16 -7 -26 0 -13 7 -18 26 -18 21 0 25 4 22
22 -3 23 -27 35 -41 22z"/>
<path d="M9615 3318 c-4 -10 -8 -32 -9 -50 -1 -29 2 -33 27 -36 24 -3 27 0 27
26 0 16 -9 40 -19 53 -18 22 -20 22 -26 7z"/>
<path d="M11156 3313 c-5 -11 -1 -22 10 -30 39 -29 62 -2 26 30 -23 21 -28 21
-36 0z"/>
<path d="M10140 3294 c-14 -36 -12 -60 5 -74 21 -17 35 -4 35 35 0 64 -22 86
-40 39z"/>
<path d="M10486 3298 c-17 -27 -13 -58 9 -58 17 0 28 46 17 67 -8 14 -12 13
-26 -9z"/>
<path d="M10653 3313 c-7 -3 -13 -19 -13 -37 0 -30 2 -33 25 -29 29 6 49 28
40 43 -9 15 -38 28 -52 23z"/>
<path d="M10825 3299 c-17 -18 -17 -21 -3 -35 20 -20 38 -10 38 21 0 33 -14
38 -35 14z"/>
<path d="M10980 3295 c0 -28 25 -44 42 -27 9 9 7 17 -7 32 -24 27 -35 25 -35
-5z"/>
<path d="M11322 3303 c2 -10 13 -19 26 -21 24 -4 29 7 10 26 -18 18 -40 15
-36 -5z"/>
<path d="M11660 3311 c0 -6 5 -13 10 -16 6 -3 10 1 10 9 0 9 -4 16 -10 16 -5
0 -10 -4 -10 -9z"/>
<path d="M9949 3287 c-16 -35 9 -192 31 -192 24 0 51 65 44 105 -8 42 -27 82
-48 99 -13 11 -17 9 -27 -12z"/>
<path d="M10306 3291 c-15 -17 -15 -20 3 -42 l19 -24 12 27 c13 27 8 58 -8 58
-5 0 -16 -8 -26 -19z"/>
<path d="M9776 3293 c-9 -10 -7 -59 4 -88 8 -21 13 -24 29 -16 10 6 21 18 25
26 11 31 -38 97 -58 78z"/>
<path d="M11980 3221 c-14 -28 -13 -31 14 -31 32 0 40 14 20 34 -20 20 -21 20
-34 -3z"/>
<path d="M11172 3197 c-24 -29 -25 -71 -2 -92 18 -16 23 -17 30 -5 14 22 12
73 -3 94 -11 15 -15 16 -25 3z"/>
<path d="M11491 3191 c-13 -23 -5 -31 31 -31 30 0 37 17 16 38 -17 17 -36 15
-47 -7z"/>
<path d="M11660 3190 c0 -15 7 -20 25 -20 27 0 32 9 13 28 -18 18 -38 14 -38
-8z"/>
<path d="M11820 3200 c-11 -7 -12 -12 -4 -20 8 -8 14 -7 23 4 14 17 1 28 -19
16z"/>
<path d="M11333 3181 c-9 -14 -9 -21 0 -30 18 -18 27 -13 27 19 0 34 -10 38
-27 11z"/>
<path d="M10827 3173 c-4 -3 -7 -26 -7 -49 0 -34 5 -46 21 -55 30 -15 43 1 35
44 -7 35 -37 72 -49 60z"/>
<path d="M10652 3145 c-7 -14 -12 -32 -12 -39 0 -13 31 -46 43 -46 12 0 7 76
-6 94 -12 17 -14 16 -25 -9z"/>
<path d="M10990 3135 c0 -19 2 -35 4 -35 2 0 11 -3 20 -6 19 -7 22 26 6 57
-16 30 -30 23 -30 -16z"/>
<path d="M10474 3126 c-7 -41 0 -56 27 -56 26 0 34 24 19 60 -17 40 -38 38
-46 -4z"/>
<path d="M10297 3143 c-9 -8 -9 -50 -1 -81 9 -31 58 -28 62 5 6 44 -38 100
-61 76z"/>
</g>
</svg>
